<svg xmlns="http://www.w3.org/2000/svg" xmlns:xlink="http://www.w3.org/1999/xlink" width="56" height="150" viewBox="0 0 56 150">
    <defs>
        <path id="prefix__a" d="M19.5 0s14.07 3.15 18.57 23.73c2.58 11.625-1.92 53.625-1.92 53.625l-4.995 37.965s-5.655 4.5-11.655 3.855h.09c-5.94.645-11.655-3.855-11.655-3.855L3 77.355S-1.5 35.31 1.05 23.73C5.456 3.579 18.923.139 19.482.004L19.5 0z"/>
    </defs>
    <g fill="none" fill-rule="evenodd">
        <path fill="#001389" d="M43.26 80.865L56.295 84.18 56.295 114.585 38.22 107.94" transform="translate(-1)"/>
        <path fill="#000" d="M52.65 110.55h-.15l-14.505-5.34a.39.39 0 01-.225-.495.405.405 0 01.495-.225l13.98 5.145V86.07L42.09 83.49a.405.405 0 01-.285-.48.39.39 0 01.465-.27l10.5 2.67a.375.375 0 01.3.36v24.405a.39.39 0 01-.165.3.345.345 0 01-.255.075z" transform="translate(-1)"/>
        <path fill="#001389" d="M14.13 80.865L1.095 84.18 1.095 114.585 19.17 107.94" transform="translate(-1)"/>
        <path fill="#000" d="M4.74 110.55a.345.345 0 01-.225 0 .345.345 0 01-.165-.3V85.77a.375.375 0 01.3-.36l10.5-2.67a.39.39 0 01.48.27.405.405 0 01-.285.48l-10.17 2.58v23.55l13.995-5.145a.405.405 0 01.495.225.39.39 0 01-.225.495l-14.505 5.34-.195.015z" transform="translate(-1)"/>
        <path fill="#428B75" d="M39.63 114.33H17.265c-2.46 8.1-.15 17.64 1.305 20.055l1.38-2.505c0 5.01 4.89 13.62 8.505 18 3.6-4.35 8.49-12.96 8.49-18l1.38 2.505c1.47-2.385 3.78-11.955 1.305-20.055z" transform="translate(-1)"/>
        <path fill="#FDBB2B" d="M35.55 114.33H21.345a19.68 19.68 0 00.84 12.735l.87-1.59c0 3.18 3.105 8.64 5.4 11.415 2.295-2.775 5.385-8.235 5.385-11.415l.885 1.59a19.695 19.695 0 00.825-12.735z" transform="translate(-1)"/>
        <path fill="#EB5F5F" d="M28.5 119.175c6 .645 11.655-3.855 11.655-3.855l4.995-37.965s4.5-42 1.92-53.625C42.57 3.15 28.5 0 28.5 0S14.55 3.15 10.05 23.73C7.5 35.31 12 77.355 12 77.355l4.935 37.965s5.715 4.5 11.655 3.855" transform="translate(-1)"/>
        <g transform="translate(-1) translate(9)">
            <mask id="prefix__b" fill="#fff">
                <use xlink:href="#prefix__a"/>
            </mask>
            <path fill="#EF9191" d="M-1.89 27.585L44.73 27.585 44.73 28.35-1.89 28.35zM-1.89 24.015L44.73 24.015 44.73 24.78-1.89 24.78zM-1.89 20.43L44.73 20.43 44.73 21.195-1.89 21.195zM-1.89 16.86L44.73 16.86 44.73 17.625-1.89 17.625zM18.18 114.165c-6.39 0-12.09-4.5-12.345-4.635l.48-.6s6.57 5.07 13.185 4.395l.09.75c-.468.059-.939.089-1.41.09z" mask="url(#prefix__b)"/>
            <path fill="#EF9191" d="M21 114.165a11.532 11.532 0 01-1.5-.09l.09-.75c6.615.705 13.14-4.35 13.2-4.395l.48.6c-.27.21-5.94 4.635-12.27 4.635zM18.18 108.825c-6.39 0-12.09-4.41-12.345-4.62l.48-.6s6.57 5.1 13.185 4.395l.09.765c-.468.049-.94.069-1.41.06z" mask="url(#prefix__b)"/>
            <path fill="#EF9191" d="M21 108.825c-.5.033-1 .033-1.5 0l.09-.765c6.615.72 13.14-4.335 13.2-4.38l.48.6c-.27.135-5.94 4.545-12.27 4.545z" mask="url(#prefix__b)"/>
        </g>
        <g>
            <path fill="#428B75" d="M33.705 15.615a9.645 9.645 0 11-19.29 0 9.645 9.645 0 0119.29 0z" transform="translate(-1) translate(4.5 37.5)"/>
            <path fill="#001389" d="M29.535 15.615a5.475 5.475 0 11-10.95 0 5.475 5.475 0 0110.95 0z" transform="translate(-1) translate(4.5 37.5)"/>
            <path fill="#000" d="M45.99 25.65h-.105a.765.765 0 01-.66-.855c.555-4.065 1.5-22.5 1.5-22.665a.765.765 0 011.338-.464.765.765 0 01.192.554c0 .765-1.005 18.66-1.5 22.785a.765.765 0 01-.765.645z" transform="translate(-1) translate(4.5 37.5)"/>
            <path fill="#FFF" d="M28.155 11.61L24.405 12.345 27.705 10.44 26.97 6.69 28.875 10.005 32.61 9.255 29.31 11.16 30.06 14.91zM29.655 5.265L27.465 4.38 29.82 4.53 30.72 2.34 30.57 4.695 32.745 5.58 30.39 5.445 29.505 7.62z" transform="translate(-1) translate(4.5 37.5)"/>
            <path fill="#000" d="M43.905 40.5h-.18a.765.765 0 01-.57-.915s.99-4.38 1.5-8.85a.78.78 0 01.855-.675.765.765 0 01.66.855c-.555 4.5-1.5 9-1.5 9a.78.78 0 01-.765.585zM2.61 37.5a.765.765 0 01-.765-.675c0-.54-1.5-13.17-1.155-15.915a.78.78 0 01.87-.66.78.78 0 01.66.87c-.315 2.13.72 11.925 1.14 15.525a.735.735 0 01-.66.84l-.09.015z" transform="translate(-1) translate(4.5 37.5)"/>
        </g>
    </g>
</svg>
